<mxfile host="Electron" modified="2023-11-13T10:22:43.295Z" agent="Mozilla/5.0 (Windows NT 10.0; Win64; x64) AppleWebKit/537.36 (KHTML, like Gecko) draw.io/22.0.3 Chrome/114.0.5735.289 Electron/25.8.4 Safari/537.36" etag="AZ44ERci0D5gxt_XP5kS" version="22.0.3" type="device">
  <diagram name="Page-1" id="rLMtOo1MwZ_dtHH17BuX">
    <mxGraphModel dx="810" dy="496" grid="1" gridSize="10" guides="1" tooltips="1" connect="1" arrows="1" fold="1" page="1" pageScale="1" pageWidth="850" pageHeight="1100" math="1" shadow="0">
      <root>
        <mxCell id="0" />
        <mxCell id="1" parent="0" />
        <mxCell id="R8hH40z00sobya1_6k2z-1" value="" style="endArrow=classic;html=1;rounded=0;" parent="1" edge="1">
          <mxGeometry width="50" height="50" relative="1" as="geometry">
            <mxPoint x="160" y="360" as="sourcePoint" />
            <mxPoint x="160" y="120" as="targetPoint" />
          </mxGeometry>
        </mxCell>
        <mxCell id="R8hH40z00sobya1_6k2z-2" value="" style="endArrow=classic;html=1;rounded=0;" parent="1" edge="1">
          <mxGeometry width="50" height="50" relative="1" as="geometry">
            <mxPoint x="120" y="320" as="sourcePoint" />
            <mxPoint x="480" y="320" as="targetPoint" />
          </mxGeometry>
        </mxCell>
        <mxCell id="R8hH40z00sobya1_6k2z-5" value="" style="ellipse;whiteSpace=wrap;html=1;aspect=fixed;dashed=1;fillColor=none;fillStyle=solid;" parent="1" vertex="1">
          <mxGeometry x="200" y="200" width="80" height="80" as="geometry" />
        </mxCell>
        <mxCell id="9hUMSRcYgDskqmC1whyp-1" value="$$1$$" style="text;html=1;strokeColor=none;fillColor=none;align=center;verticalAlign=middle;whiteSpace=wrap;rounded=0;" vertex="1" parent="1">
          <mxGeometry x="230" y="320" width="20" height="30" as="geometry" />
        </mxCell>
        <mxCell id="9hUMSRcYgDskqmC1whyp-2" value="$$2$$" style="text;html=1;strokeColor=none;fillColor=none;align=center;verticalAlign=middle;whiteSpace=wrap;rounded=0;" vertex="1" parent="1">
          <mxGeometry x="310" y="320" width="20" height="30" as="geometry" />
        </mxCell>
        <mxCell id="9hUMSRcYgDskqmC1whyp-3" value="$$3$$" style="text;html=1;strokeColor=none;fillColor=none;align=center;verticalAlign=middle;whiteSpace=wrap;rounded=0;" vertex="1" parent="1">
          <mxGeometry x="390" y="320" width="20" height="30" as="geometry" />
        </mxCell>
        <mxCell id="9hUMSRcYgDskqmC1whyp-4" value="$$1$$" style="text;html=1;strokeColor=none;fillColor=none;align=center;verticalAlign=middle;whiteSpace=wrap;rounded=0;" vertex="1" parent="1">
          <mxGeometry x="140" y="220" width="20" height="40" as="geometry" />
        </mxCell>
        <mxCell id="9hUMSRcYgDskqmC1whyp-5" value="$$2$$" style="text;html=1;strokeColor=none;fillColor=none;align=center;verticalAlign=middle;whiteSpace=wrap;rounded=0;" vertex="1" parent="1">
          <mxGeometry x="140" y="140" width="20" height="40" as="geometry" />
        </mxCell>
        <mxCell id="9hUMSRcYgDskqmC1whyp-6" value="" style="shape=ellipse;fillColor=#000000;strokeColor=none;html=1;sketch=0;" vertex="1" parent="1">
          <mxGeometry x="235" y="235" width="10" height="10" as="geometry" />
        </mxCell>
        <mxCell id="9hUMSRcYgDskqmC1whyp-7" value="$$P$$" style="text;html=1;strokeColor=none;fillColor=none;align=center;verticalAlign=middle;whiteSpace=wrap;rounded=0;" vertex="1" parent="1">
          <mxGeometry x="230" y="225" width="60" height="30" as="geometry" />
        </mxCell>
        <mxCell id="9hUMSRcYgDskqmC1whyp-8" value="" style="rounded=0;whiteSpace=wrap;html=1;fillColor=none;dashed=1;strokeColor=#CC0000;" vertex="1" parent="1">
          <mxGeometry x="160" y="160" width="240" height="160" as="geometry" />
        </mxCell>
        <mxCell id="9hUMSRcYgDskqmC1whyp-9" value="" style="ellipse;whiteSpace=wrap;html=1;aspect=fixed;dashed=1;fillColor=none;fillStyle=solid;" vertex="1" parent="1">
          <mxGeometry x="360" y="280" width="80" height="80" as="geometry" />
        </mxCell>
        <mxCell id="9hUMSRcYgDskqmC1whyp-10" value="" style="shape=ellipse;fillColor=#000000;strokeColor=none;html=1;sketch=0;" vertex="1" parent="1">
          <mxGeometry x="395" y="315" width="10" height="10" as="geometry" />
        </mxCell>
        <mxCell id="9hUMSRcYgDskqmC1whyp-11" value="$$Q$$" style="text;html=1;strokeColor=none;fillColor=none;align=center;verticalAlign=middle;whiteSpace=wrap;rounded=0;" vertex="1" parent="1">
          <mxGeometry x="390" y="295" width="60" height="30" as="geometry" />
        </mxCell>
        <mxCell id="9hUMSRcYgDskqmC1whyp-12" value="$$U$$" style="text;html=1;strokeColor=none;fillColor=none;align=center;verticalAlign=middle;whiteSpace=wrap;rounded=0;" vertex="1" parent="1">
          <mxGeometry x="400" y="130" width="30" height="30" as="geometry" />
        </mxCell>
      </root>
    </mxGraphModel>
  </diagram>
</mxfile>
